<svg xmlns="http://www.w3.org/2000/svg" width="25.726" height="25.744" viewBox="0 0 25.726 25.744">
    <path d="M8.313 24.744a1.536 1.536 0 0 1-.691-.158c-1.055-.528-.943-2.05-.927-2.222l.267-2.087a10.547 10.547 0 0 1-6.532-6.9l-.008-.02-.281-1.34-.015.033A10.355 10.355 0 0 1 4.919 1.623l-.006.014a5.23 5.23 0 0 1 1.2-.649l.002-.013A10.422 10.422 0 0 1 10.509 0h3.706a10.467 10.467 0 0 1 7.423 3.069 10.36 10.36 0 0 1 0 14.756 10.467 10.467 0 0 1-7.423 3.069h-.789l-1.905 2.064c-1.339 1.201-2.388 1.786-3.208 1.786zM18.342 8.979a1.62 1.62 0 1 0 1.619 1.621 1.621 1.621 0 0 0-1.619-1.621zm-6.019 0a1.62 1.62 0 1 0 1.619 1.621 1.621 1.621 0 0 0-1.619-1.621zm-6.03 0a1.62 1.62 0 1 0 1.62 1.621 1.621 1.621 0 0 0-1.62-1.621z" transform="translate(.5 .5)" style="fill:#ff8494;stroke:transparent;stroke-miterlimit:10"/>
</svg>
