<svg xmlns="http://www.w3.org/2000/svg" width="22" height="22" viewBox="0 0 22 22">
    <g transform="translate(.5 1)">
        <g style="fill:none;stroke-linecap:round;stroke-linejoin:round">
            <path d="M.5 16.4A1.569 1.569 0 0 0 2.036 18h16.928a1.569 1.569 0 0 0 1.536-1.6v-3.254a3.3 3.3 0 0 1 0-6.291V3.6A1.569 1.569 0 0 0 18.964 2H2.036A1.569 1.569 0 0 0 .5 3.6v3.247A3.24 3.24 0 0 1 2.833 10 3.24 3.24 0 0 1 .5 13.153V16.4z" style="stroke:none"/>
            <path d="M18.964 17c.296 0 .536-.27.536-.6v-2.577c-1.39-.705-2.308-2.181-2.308-3.823s.919-3.118 2.308-3.823V3.6c0-.33-.24-.6-.536-.6H2.036c-.296 0-.536.27-.536.6v2.564c1.405.699 2.333 2.18 2.333 3.836 0 1.656-.928 3.137-2.333 3.836V16.4c0 .33.24.6.536.6h16.928m0 1H2.036C1.188 18 .5 17.284.5 16.4v-3.247c1.343-.367 2.333-1.64 2.333-3.153 0-1.514-.99-2.786-2.333-3.153V3.6c0-.884.688-1.6 1.536-1.6h16.928c.848 0 1.536.716 1.536 1.6v3.254c-1.33.376-2.308 1.642-2.308 3.146s.978 2.77 2.308 3.146V16.4c0 .884-.688 1.6-1.536 1.6z" style="fill:#fff;stroke:none"/>
        </g>
        <path d="m4.521 9.5 5-5" transform="translate(3.518 2.692)" style="stroke:#fff;fill:none;stroke-linecap:round;stroke-linejoin:round"/>
        <circle data-name="타원 29" cx="1" cy="1" r="1" transform="translate(6.5 7)" style="fill:#fff"/>
        <circle data-name="타원 30" cx="1" cy="1" r="1" transform="translate(12 11)" style="fill:#fff"/>
    </g>
</svg>
