<svg xmlns="http://www.w3.org/2000/svg" width="22" height="22.168" viewBox="0 0 22 22.168">
    <path data-name="패스 1598" d="M6.628 53.152 3.031 57.1l3.4.611 1.36 3.669 3.618-5.162" transform="translate(-2.031 -39.716)" style="stroke:#fff;fill:none;stroke-linecap:round;stroke-linejoin:round"/>
    <path data-name="패스 1599" d="M61.4 53.152 65 57.1l-3.4.611-1.36 3.669-3.618-5.162" transform="translate(-43.601 -39.716)" style="stroke:#fff;fill:none;stroke-linecap:round;stroke-linejoin:round"/>
    <g data-name="패스 1595" style="fill:none;stroke-linecap:round;stroke-linejoin:round">
        <path d="m35.114 16.36 1.193 2.349h2.033a.556.556 0 0 1 .4.956L36.874 21.5l1.034 2.375a.563.563 0 0 1-.8.7l-2.5-1.406-2.5 1.406a.563.563 0 0 1-.8-.7L32.34 21.5l-1.867-1.837a.556.556 0 0 1 .4-.956h2.033L34.1 16.36a.573.573 0 0 1 1.014 0z" style="stroke:none" transform="translate(-23.763 -11.854)"/>
        <path d="m34.607 17.569-.81 1.59a1 1 0 0 1-.89.546h-.963l1.097 1.08a1 1 0 0 1 .215 1.112l-.51 1.174 1.37-.771a1 1 0 0 1 .98 0l1.372.771-.511-1.174a1 1 0 0 1 .216-1.113l1.095-1.075h-.961a1 1 0 0 1-.892-.547l-.808-1.593m0-1.515a.573.573 0 0 1 .507.306l1.193 2.349h2.033a.556.556 0 0 1 .4.956l-1.866 1.833 1.034 2.375a.562.562 0 0 1-.802.704l-2.5-1.406-2.499 1.406a.563.563 0 0 1-.802-.704l1.035-2.375-1.867-1.837a.556.556 0 0 1 .4-.956h2.033L34.1 16.36a.574.574 0 0 1 .507-.306z" style="fill:#fff;stroke:none" transform="translate(-23.763 -11.854)"/>
    </g>
    <g data-name="패스 1594" style="fill:none;stroke-linecap:round;stroke-linejoin:round">
        <path d="M15.156 11.281a8.25 8.25 0 1 0 2.416-5.834 8.25 8.25 0 0 0-2.416 5.834z" style="stroke:none" transform="translate(-12.562 -2.531)"/>
        <path d="M23.406 4.031a7.203 7.203 0 0 0-5.126 2.124 7.202 7.202 0 0 0-2.124 5.126c0 1.937.754 3.757 2.124 5.127a7.202 7.202 0 0 0 5.126 2.123 7.202 7.202 0 0 0 5.127-2.123 7.202 7.202 0 0 0 2.123-5.127 7.203 7.203 0 0 0-2.123-5.126 7.202 7.202 0 0 0-5.127-2.124m0-1a8.25 8.25 0 1 1 0 16.5 8.25 8.25 0 0 1 0-16.5z" style="fill:#fff;stroke:none" transform="translate(-12.562 -2.531)"/>
    </g>
</svg>
