<svg xmlns="http://www.w3.org/2000/svg" width="44.441" height="18.447" viewBox="0 0 44.441 18.447">
    <defs>
        <clipPath id="awha0cv5ga">
            <path data-name="사각형 5252" style="fill:#01c136" d="M0 0h44.441v18.447H0z"/>
        </clipPath>
    </defs>
    <circle data-name="타원 3" cx="5.847" cy="5.847" r="5.847" transform="translate(1.859 3.269)" style="fill:#fff"/>
    <g data-name="그룹 894" style="clip-path:url(#awha0cv5ga)">
        <path data-name="패스 1442" d="M128.679 30.571v3.037h-1.7v-9.389h1.7v.96a3 3 0 0 1 2.411-1.107 3.606 3.606 0 0 1 3.66 3.55c0 .068 0 .136-.006.2a3.633 3.633 0 0 1-3.537 3.738h-.1a3.071 3.071 0 0 1-2.425-1m4.377-2.768a2.2 2.2 0 0 0-2.18-2.214h-.053a2.227 2.227 0 0 0 0 4.454 2.212 2.212 0 0 0 2.234-2.189v-.05" transform="translate(-108.435 -18.748)" style="fill:#01c136"/>
        <path data-name="패스 1443" d="M183.761 27.842a3.6 3.6 0 0 1 3.468-3.748q.106-.006.212-.005a3.133 3.133 0 0 1 2.385 1.009v-.864h1.713v7.2h-1.713V30.5a3.078 3.078 0 0 1-2.411 1.083 3.651 3.651 0 0 1-3.657-3.647v-.094m6.154-.025a2.235 2.235 0 0 0-4.466-.1v.1a2.235 2.235 0 0 0 4.466.145v-.145" transform="translate(-156.921 -18.762)" style="fill:#01c136"/>
        <path data-name="패스 1444" d="m246.894 31.507-3.259-6.37h1.827l2.223 4.517 2.058-4.387h1.8l-4.281 9.256h-1.741z" transform="translate(-208.055 -19.663)" style="fill:#01c136"/>
        <path data-name="패스 1445" d="M7.588 0A7.6 7.6 0 1 0 15.2 7.6 7.6 7.6 0 0 0 7.587 0m3.507 11.29h-2.26L6.341 7.578v3.712h-2.26V4.213h2.26l2.493 3.712V4.213h2.26z" transform="translate(0 1.907)" style="fill:#01c136"/>
    </g>
</svg>
