<svg xmlns="http://www.w3.org/2000/svg" width="17.7" height="18" viewBox="0 0 17.7 18">
    <path d="M4.5 21a1.439 1.439 0 0 1-1.05-.45A1.439 1.439 0 0 1 3 19.5v-15a1.439 1.439 0 0 1 .45-1.05A1.439 1.439 0 0 1 4.5 3h6.725a.724.724 0 0 1 .535.217.732.732 0 0 1 .215.537.718.718 0 0 1-.215.533.732.732 0 0 1-.535.213H4.5v15h6.725a.724.724 0 0 1 .535.217.732.732 0 0 1 .215.538.718.718 0 0 1-.215.533.732.732 0 0 1-.535.212H4.5zm13.625-8.25H9.75a.723.723 0 0 1-.534-.217A.732.732 0 0 1 9 12a.717.717 0 0 1 .216-.533.731.731 0 0 1 .534-.212h8.325l-2.025-2.03a.677.677 0 0 1-.212-.525.767.767 0 0 1 .237-.525.755.755 0 0 1 1.075 0l3.325 3.325a.725.725 0 0 1 0 1.05l-3.3 3.3a.665.665 0 0 1-.522.213.806.806 0 0 1-.537-.238.75.75 0 0 1-.215-.538.734.734 0 0 1 .225-.538l2-2z" transform="translate(-3 -3)" style="fill:red"/>
</svg>
