<svg xmlns="http://www.w3.org/2000/svg" width="110" height="26.93" viewBox="0 0 110 26.93">
    <path data-name="패스 1601" d="M16.97 19.7h-1.928a5.143 5.143 0 0 0-1.285 10.123 4.989 4.989 0 0 0 .675.129 27.849 27.849 0 0 0 2.989 0 7.35 7.35 0 0 0 1.157-.225 4.856 4.856 0 0 0 .932-.418 7.312 7.312 0 0 1-.064-.836 5.482 5.482 0 0 1 2.571-4.628A5.163 5.163 0 0 0 16.97 19.7zm1.607 8.452h-.8v.836h-.647v-.836h-.8v-.643h.8v-.8h.643v.8h.836v.643zm.064-3.6c0 .932-.514 1.382-1.543 1.382h-2.635v1.478h-1.639v-6.073H17.1c1.028 0 1.543.45 1.543 1.382v1.832z" transform="translate(-6.815 -13.562)" style="fill:#ff8494"/>
    <path data-name="패스 1602" d="M26.157 29.1H24.1v1.992h2.057a.483.483 0 0 0 .514-.546v-.836c0-.417-.161-.61-.514-.61z" transform="translate(-16.452 -19.941)" style="fill:#ff8494"/>
    <path data-name="패스 1603" d="M27.133 11.3a23.396 23.396 0 0 0-.289-2.089c-.032-.129-.032-.257-.064-.418a12.621 12.621 0 0 0-.739-2.442 9.444 9.444 0 0 0-1.641-2.57 8.459 8.459 0 0 0-2.5-1.767A12.579 12.579 0 0 0 18.007.889 30.425 30.425 0 0 0 13.829.6h-.064c-1.414.032-2.8.129-4.178.289a12.771 12.771 0 0 0-3.92 1.125A7.57 7.57 0 0 0 3.16 3.781a7.98 7.98 0 0 0-1.639 2.571 13.338 13.338 0 0 0-.739 2.443c-.032.129-.032.257-.064.418A14.855 14.855 0 0 0 .429 11.3c-.032.321-.032.675-.064 1C.332 12.972.3 13.615.3 14.29v.289a23.732 23.732 0 0 0 .353 4.274c.064.45.193.9.289 1.35a13.823 13.823 0 0 0 .643 1.832 7.615 7.615 0 0 0 .615 1.124c.032.032.032.064.064.1.032.064.1.129.129.193a8.607 8.607 0 0 0 1.575 1.671c.225.193.45.353.675.514a6.9 6.9 0 0 0 .836.45c.45.193.9.386 1.382.546a11.3 11.3 0 0 0 1.382.418 7.168 7.168 0 0 0 .739.129l.064.032a12.642 12.642 0 0 0 1.543.193.547.547 0 0 1 .225.032c.225.032.418.032.643.064h.129c.161 0 .321.032.45.032H15.5c.161 0 .321-.032.45-.032h.129a4.355 4.355 0 0 0 .643-.064.547.547 0 0 0 .225-.032l1.543-.193.064-.032a5.051 5.051 0 0 0 .739-.129 9.822 9.822 0 0 0 1.382-.418c.482-.161.932-.353 1.382-.546.289-.129.546-.289.836-.45.225-.161.45-.321.675-.514a7.779 7.779 0 0 0 1.575-1.671c.032-.064.1-.129.129-.193.032-.032.032-.064.064-.1a7.616 7.616 0 0 0 .611-1.125 11.21 11.21 0 0 0 .643-1.832 10.118 10.118 0 0 0 .289-1.35 23.976 23.976 0 0 0 .353-4.274v-.288c0-.675 0-1.318-.064-1.992a5.167 5.167 0 0 0-.035-.998zm-1.35 4.178a5.479 5.479 0 0 1-5.463 5.463h-.42l-1 1.093a2.846 2.846 0 0 1-1.671.932.648.648 0 0 1-.353-.1c-.546-.289-.482-1.06-.482-1.157l.129-1.093a5.515 5.515 0 0 1-3.406-3.6 6.792 6.792 0 0 1-2.025.643 17.354 17.354 0 0 1-3.953-.129A5.815 5.815 0 0 1 8.495 6.063h1.928a5.821 5.821 0 0 1 5.656 4.467 5.51 5.51 0 0 1 2.282-.514h1.928a5.465 5.465 0 0 1 5.5 5.463z" style="fill:#ff8494" transform="translate(-.3 -.6)"/>
    <path data-name="패스 1604" d="M58.168 44.8a.868.868 0 1 0 .868.868.885.885 0 0 0-.868-.868z" transform="translate(-38.983 -30.596)" style="fill:#ff8494"/>
    <path data-name="패스 1605" d="M48.168 44.8a.868.868 0 1 0 .868.868.885.885 0 0 0-.868-.868z" transform="translate(-32.196 -30.596)" style="fill:#ff8494"/>
    <path data-name="패스 1606" d="M68.168 44.8a.868.868 0 1 0 .868.868.908.908 0 0 0-.868-.868z" transform="translate(-45.769 -30.596)" style="fill:#ff8494"/>
    <path data-name="패스 1607" d="M174.357 16.964a1.712 1.712 0 0 0-1.735-1.864h-11.087a1.679 1.679 0 0 0-1.735 1.864 1.764 1.764 0 0 0 1.735 1.928h3.278v13.529h4.5V18.892h3.31a1.8 1.8 0 0 0 1.734-1.928z" transform="translate(-108.544 -10.44)" style="fill:#ff8494"/>
    <path data-name="패스 1608" d="M141.757 42.3h-6.266a2.266 2.266 0 0 0 0 4.5h6.266a2.169 2.169 0 0 0 1.992-2.314 2.092 2.092 0 0 0-1.992-2.186z" transform="translate(-90.694 -28.899)" style="fill:#ff8494"/>
    <path data-name="패스 1609" d="M208.555 14.691a2.822 2.822 0 0 0-2.8 1.8L200.2 32.109h4.66l.836-2.667h5.559l.836 2.667h4.756l-5.624-15.618a2.817 2.817 0 0 0-2.668-1.8zm-1.7 11.119 1.671-5.367 1.639 5.367z" transform="translate(-135.961 -10.16)" style="fill:#ff8494"/>
    <path data-name="패스 1610" d="M265.5 28.424h-4.79c-.482 0-.611-.1-.611-.611V16.984a2.25 2.25 0 0 0-4.5 0V28.81c0 2.474.771 3.406 3.374 3.406h6.556a1.748 1.748 0 0 0 1.735-1.928 1.7 1.7 0 0 0-1.764-1.864z" transform="translate(-173.558 -10.235)" style="fill:#ff8494"/>
    <path data-name="패스 1611" d="m304.934 22.705 4.081-4.531c.064-.064.129-.161.193-.225a1.984 1.984 0 0 0-.611-2.764 2.385 2.385 0 0 0-3.117.546l-5.11 6.2v-4.946a2.185 2.185 0 1 0-4.37 0v15.232h4.37v-4.466l1.735-1.928 3.856 6.363h5.013z" transform="translate(-200.975 -10.237)" style="fill:#ff8494"/>
    <path data-name="패스 1612" d="M112.014 31.7a2.258 2.258 0 0 0-2.314 2.185v9.737h4.5v-9.738a2.253 2.253 0 0 0-2.186-2.184z" transform="translate(-74.544 -21.704)" style="fill:#ff8494"/>
    <path data-name="패스 1613" d="M111.849 19.2a2.249 2.249 0 1 0-2.249-2.249 2.3 2.3 0 0 0 2.249 2.249z" transform="translate(-74.476 -10.169)" style="fill:#ff8494"/>
</svg>
